<?xml version="1.0" standalone="no"?>
<svg xmlns:xlink="http://www.w3.org/1999/xlink" id="wave" style="transform:rotate(180deg); transition: 0.3s" viewBox="0 0 1440 310" version="1.1" xmlns="http://www.w3.org/2000/svg"><defs><linearGradient id="sw-gradient-0" x1="0" x2="0" y1="1" y2="0"><stop stop-color="rgba(107, 185, 240, 1)" offset="0%"/><stop stop-color="rgba(255, 255, 255, 1)" offset="100%"/></linearGradient></defs><path style="transform:translate(0, 0px); opacity:1" fill="url(#sw-gradient-0)" d="M0,31L26.7,25.8C53.3,21,107,10,160,10.3C213.3,10,267,21,320,67.2C373.3,114,427,196,480,196.3C533.3,196,587,114,640,113.7C693.3,114,747,196,800,232.5C853.3,269,907,258,960,258.3C1013.3,258,1067,269,1120,253.2C1173.3,238,1227,196,1280,160.2C1333.3,124,1387,93,1440,82.7C1493.3,72,1547,83,1600,113.7C1653.3,145,1707,196,1760,191.2C1813.3,186,1867,124,1920,124C1973.3,124,2027,186,2080,217C2133.3,248,2187,248,2240,253.2C2293.3,258,2347,269,2400,268.7C2453.3,269,2507,258,2560,242.8C2613.3,227,2667,207,2720,165.3C2773.3,124,2827,62,2880,62C2933.3,62,2987,124,3040,139.5C3093.3,155,3147,124,3200,129.2C3253.3,134,3307,176,3360,170.5C3413.3,165,3467,114,3520,113.7C3573.3,114,3627,165,3680,175.7C3733.3,186,3787,155,3813,139.5L3840,124L3840,310L3813.3,310C3786.7,310,3733,310,3680,310C3626.7,310,3573,310,3520,310C3466.7,310,3413,310,3360,310C3306.7,310,3253,310,3200,310C3146.7,310,3093,310,3040,310C2986.7,310,2933,310,2880,310C2826.7,310,2773,310,2720,310C2666.7,310,2613,310,2560,310C2506.7,310,2453,310,2400,310C2346.7,310,2293,310,2240,310C2186.7,310,2133,310,2080,310C2026.7,310,1973,310,1920,310C1866.7,310,1813,310,1760,310C1706.7,310,1653,310,1600,310C1546.7,310,1493,310,1440,310C1386.7,310,1333,310,1280,310C1226.7,310,1173,310,1120,310C1066.7,310,1013,310,960,310C906.7,310,853,310,800,310C746.7,310,693,310,640,310C586.7,310,533,310,480,310C426.7,310,373,310,320,310C266.7,310,213,310,160,310C106.7,310,53,310,27,310L0,310Z"/><defs><linearGradient id="sw-gradient-1" x1="0" x2="0" y1="1" y2="0"><stop stop-color="rgba(25, 181, 254, 1)" offset="0%"/><stop stop-color="rgba(107, 185, 240, 1)" offset="100%"/></linearGradient></defs><path style="transform:translate(0, 50px); opacity:0.9" fill="url(#sw-gradient-1)" d="M0,186L26.7,186C53.3,186,107,186,160,191.2C213.3,196,267,207,320,222.2C373.3,238,427,258,480,222.2C533.3,186,587,93,640,67.2C693.3,41,747,83,800,98.2C853.3,114,907,103,960,124C1013.3,145,1067,196,1120,201.5C1173.3,207,1227,165,1280,134.3C1333.3,103,1387,83,1440,62C1493.3,41,1547,21,1600,41.3C1653.3,62,1707,124,1760,144.7C1813.3,165,1867,145,1920,124C1973.3,103,2027,83,2080,72.3C2133.3,62,2187,62,2240,56.8C2293.3,52,2347,41,2400,77.5C2453.3,114,2507,196,2560,211.8C2613.3,227,2667,176,2720,129.2C2773.3,83,2827,41,2880,51.7C2933.3,62,2987,124,3040,165.3C3093.3,207,3147,227,3200,211.8C3253.3,196,3307,145,3360,139.5C3413.3,134,3467,176,3520,201.5C3573.3,227,3627,238,3680,242.8C3733.3,248,3787,248,3813,248L3840,248L3840,310L3813.3,310C3786.7,310,3733,310,3680,310C3626.7,310,3573,310,3520,310C3466.7,310,3413,310,3360,310C3306.7,310,3253,310,3200,310C3146.7,310,3093,310,3040,310C2986.7,310,2933,310,2880,310C2826.7,310,2773,310,2720,310C2666.7,310,2613,310,2560,310C2506.7,310,2453,310,2400,310C2346.7,310,2293,310,2240,310C2186.7,310,2133,310,2080,310C2026.7,310,1973,310,1920,310C1866.7,310,1813,310,1760,310C1706.7,310,1653,310,1600,310C1546.7,310,1493,310,1440,310C1386.7,310,1333,310,1280,310C1226.7,310,1173,310,1120,310C1066.7,310,1013,310,960,310C906.7,310,853,310,800,310C746.7,310,693,310,640,310C586.7,310,533,310,480,310C426.7,310,373,310,320,310C266.7,310,213,310,160,310C106.7,310,53,310,27,310L0,310Z"/><defs><linearGradient id="sw-gradient-2" x1="0" x2="0" y1="1" y2="0"><stop stop-color="rgba(34, 167, 240, 1)" offset="0%"/><stop stop-color="rgba(25, 181, 254, 1)" offset="100%"/></linearGradient></defs><path style="transform:translate(0, 100px); opacity:0.8" fill="url(#sw-gradient-2)" d="M0,279L26.7,237.7C53.3,196,107,114,160,93C213.3,72,267,114,320,139.5C373.3,165,427,176,480,149.8C533.3,124,587,62,640,51.7C693.3,41,747,83,800,82.7C853.3,83,907,41,960,46.5C1013.3,52,1067,103,1120,113.7C1173.3,124,1227,93,1280,103.3C1333.3,114,1387,165,1440,175.7C1493.3,186,1547,155,1600,165.3C1653.3,176,1707,227,1760,232.5C1813.3,238,1867,196,1920,155C1973.3,114,2027,72,2080,82.7C2133.3,93,2187,155,2240,160.2C2293.3,165,2347,114,2400,87.8C2453.3,62,2507,62,2560,77.5C2613.3,93,2667,124,2720,129.2C2773.3,134,2827,114,2880,134.3C2933.3,155,2987,217,3040,206.7C3093.3,196,3147,114,3200,98.2C3253.3,83,3307,134,3360,175.7C3413.3,217,3467,248,3520,217C3573.3,186,3627,93,3680,72.3C3733.3,52,3787,103,3813,129.2L3840,155L3840,310L3813.3,310C3786.7,310,3733,310,3680,310C3626.7,310,3573,310,3520,310C3466.7,310,3413,310,3360,310C3306.7,310,3253,310,3200,310C3146.7,310,3093,310,3040,310C2986.7,310,2933,310,2880,310C2826.7,310,2773,310,2720,310C2666.7,310,2613,310,2560,310C2506.7,310,2453,310,2400,310C2346.7,310,2293,310,2240,310C2186.7,310,2133,310,2080,310C2026.7,310,1973,310,1920,310C1866.7,310,1813,310,1760,310C1706.7,310,1653,310,1600,310C1546.7,310,1493,310,1440,310C1386.7,310,1333,310,1280,310C1226.7,310,1173,310,1120,310C1066.7,310,1013,310,960,310C906.7,310,853,310,800,310C746.7,310,693,310,640,310C586.7,310,533,310,480,310C426.7,310,373,310,320,310C266.7,310,213,310,160,310C106.7,310,53,310,27,310L0,310Z"/></svg>